PathFileType	4	(X/Y/Z)	/Users/mathieubourgeois/Desktop/Analyse/Traitement/Sujet_05/Data/Transformed_Sujet_05_velo_100.trc
DataRate	CameraRate	NumFrames	NumMarkers	Units	OrigDataRate	OrigDataStartFrame	OrigNumFrames
120.000000	120.000000	5	36	mm	120.000000	721	1924
Frame#	Time	RFHD			RANE			STRN			LANI			LKNE			T10			RHUM			RWRB			C7			LFWT			LTOE			RTOE			LWRA			LBWT			RBWT			RFWT			LKNI			RKNI			RKNE			LANE			RANI			LHEE			RHEE			LHUM			LRAD			RRAD			RWRA			LWRB			LFHD			LBHD			RBHD			RSHO			LSHO			CLAV			LCAR			RCAR			
		X1	Y1	Z1	X2	Y2	Z2	X3	Y3	Z3	X4	Y4	Z4	X5	Y5	Z5	X6	Y6	Z6	X7	Y7	Z7	X8	Y8	Z8	X9	Y9	Z9	X10	Y10	Z10	X11	Y11	Z11	X12	Y12	Z12	X13	Y13	Z13	X14	Y14	Z14	X15	Y15	Z15	X16	Y16	Z16	X17	Y17	Z17	X18	Y18	Z18	X19	Y19	Z19	X20	Y20	Z20	X21	Y21	Z21	X22	Y22	Z22	X23	Y23	Z23	X24	Y24	Z24	X25	Y25	Z25	X26	Y26	Z26	X27	Y27	Z27	X28	Y28	Z28	X29	Y29	Z29	X30	Y30	Z30	X31	Y31	Z31	X32	Y32	Z32	X33	Y33	Z33	X34	Y34	Z34	X35	Y35	Z35	X36	Y36	Z36	

722	6.008333333333333	143.6962432861328	1350.136474609375	106.7599945068359	-136.965576171875	323.2633056640625	202.0116119384765	-190.1302185058594	1142.023681640625	30.47687911987295	-334.7481079101562	525.6299438476562	-58.56933593750008	-97.37280273437497	802.7156372070312	-179.7856597900391	-330.948486328125	1348.7236328125	42.41664123535143	31.19788169860837	1039.794555664062	196.3742065429687	243.9637451171875	893.0563354492188	249.6362762451172	-102.2737121582031	1410.967041015625	21.26995086669912	-366.3468933105469	1074.5517578125	-78.13352966308605	-276.0784606933594	356.6821899414062	-82.17096710205084	40.04560089111326	234.7325592041016	160.2891540527343	279.2725524902344	940.8351440429688	-154.7876281738282	-538.4945678710938	1101.129516601562	-5.218441963195934	-521.9550170898438	1106.352294921875	132.2979431152343	-354.0907592773438	1063.265991210938	166.1012573242186	-92.04559326171874	777.661865234375	-73.66405487060553	-107.5808944702149	682.31982421875	111.0882339477538	-126.2904663085938	724.21435546875	215.9708099365234	-358.3311157226562	541.1043090820312	-139.2850036621095	-103.8112335205078	330.8846435546875	120.4867935180664	-422.4200134277344	545.8867797851562	-92.61151885986337	-194.5934143066407	296.1615295410156	158.2443695068359	21.89478302001955	1040.09326171875	-158.7060852050782	67.30097198486331	1070.122314453125	-205.3726959228516	70.6228332519531	1072.751098632812	248.7082214355468	276.6295166015625	937.0586547851562	199.6272430419922	250.4104766845703	887.4249267578125	-188.4034881591797	157.8865203857422	1349.646606445312	-39.59730911254889	37.05368041992188	1442.448852539062	-57.29104995727547	17.72736930847167	1467.03955078125	75.34883117675773	-22.68127441406252	1331.11376953125	170.761734008789	-70.65934753417967	1325.199951171875	-135.8591766357423	-72.55117797851562	1265.894775390625	23.689016342163	327.2095031738281	936.7012939453125	-227.0968780517578	323.8495788574218	928.4241333007812	288.3549499511719	
723	6.016666666666667	143.46728515625	1350.195678710938	104.3560409545898	-146.4510650634766	309.2250366210938	201.5885620117187	-190.5735015869141	1141.210205078125	29.33256530761709	-327.1488342285156	540.2919921875	-58.57229995727547	-90.29885101318357	815.616455078125	-180.6123199462891	-331.4909057617188	1347.94091796875	42.57427597045886	30.0863227844238	1039.195434570312	196.2534637451171	243.5047912597656	893.0429077148438	249.6930389404297	-103.4099273681641	1410.657836914062	19.50381660461416	-366.08740234375	1073.873413085938	-77.71238708496105	-265.8815002441406	373.7880554199219	-82.6493759155274	30.73066902160642	219.1142272949219	160.4811248779297	278.5393676757812	941.1572265625	-154.936279296875	-538.2015991210938	1099.9423828125	-4.406260013580455	-521.1455688476562	1104.974609375	133.2990417480468	-352.984619140625	1061.1708984375	166.092803955078	-82.55841064453124	791.8272705078125	-74.31923675537115	-119.4665603637695	668.2921142578125	110.9011917114257	-137.6888885498047	710.1766357421875	215.8699951171874	-351.0838317871094	555.5425415039062	-138.9406280517579	-112.1231079101563	316.9575805664062	120.3609085083008	-415.7538146972656	559.6824340820312	-92.20484161376962	-203.0607147216797	282.6905212402344	156.2773437499999	20.56488609313967	1039.276733398438	-159.1915283203126	65.74846649169925	1069.19091796875	-206.1547393798829	69.47769927978513	1071.974487304688	248.4133758544921	275.9905700683594	937.2944946289062	199.7304229736328	249.9249877929688	887.5559692382812	-188.4424133300782	157.1909027099609	1349.345336914062	-42.07182693481452	36.2179298400879	1441.958984375	-59.59927749633797	17.36663436889647	1466.898071289062	73.00131225585929	-22.89420509338381	1330.98681640625	169.365020751953	-72.3495407104492	1324.530151367188	-137.7804565429688	-72.92747497558594	1265.342651367188	22.09986114501944	326.7681274414062	936.7628784179688	-227.3916320800782	323.4252014160156	928.5327758789062	288.3785400390625	
724	6.025	143.3457336425781	1350.292724609375	102.013084411621	-156.6721496582032	296.4636535644531	200.8647460937499	-190.9011840820312	1140.703002929688	28.12414360046377	-319.0003051757812	554.0333862304688	-58.07677459716804	-83.77795410156247	828.9685668945312	-181.1295471191407	-331.7613220214844	1347.5	42.64971923828112	28.86964607238767	1038.579833984375	196.2926788330078	243.1463012695312	892.9949340820312	249.72314453125	-104.2988052368164	1410.515991210938	17.76716613769521	-365.9138793945312	1073.57958984375	-77.28809356689464	-254.8184509277344	388.4793090820312	-81.79051971435553	19.89428329467771	203.8976135253906	160.7550354003906	277.7714538574219	941.3364868164062	-155.238525390625	-537.8677368164062	1099.19677734375	-3.662748098373546	-520.3656005859375	1103.998413085938	134.1998748779296	-352.0257568359375	1059.555419921875	166.0934753417968	-74.3232955932617	805.740234375	-74.66802978515631	-130.8116149902344	656.3966064453125	110.7902297973632	-149.7172393798828	697.8320922851562	215.8288421630859	-342.8870849609375	568.7294921875	-138.8091278076172	-121.0736236572266	304.440185546875	120.1997375488281	-408.6207580566406	572.1810913085938	-91.80307006835946	-213.0105438232422	271.8304748535156	155.317153930664	19.34448051452639	1038.667236328125	-159.7265167236329	64.3084411621094	1068.41064453125	-206.9152069091797	68.20026397705075	1071.425537109375	248.3155670166015	275.3146362304688	937.600341796875	199.8871765136718	249.4082641601563	887.5896606445312	-188.6439514160157	156.6672668457031	1349.055908203125	-44.47579574584967	35.69168853759766	1441.676147460938	-61.89894866943367	17.26172637939452	1466.982421875	70.62925720214835	-22.98737525939944	1330.820434570312	167.977813720703	-73.79808807373045	1323.988891601562	-139.7628631591798	-73.14990997314453	1265.081665039062	20.48004913330069	326.2180786132812	936.8162841796875	-227.6540832519532	323.1183471679687	928.494873046875	288.3244934082031	
725	6.033333333333333	143.3510894775391	1350.471069335938	99.74645996093743	-167.6273651123047	285.4231567382812	200.1036834716796	-191.0724182128906	1140.5146484375	26.87262916564932	-311.1422729492188	566.9208374023438	-57.05952072143562	-77.70477294921872	842.6653442382812	-181.4809722900391	-331.797119140625	1347.406494140625	42.64396286010729	27.79101753234861	1037.9775390625	196.3723449707031	242.8567810058593	892.89208984375	249.7897186279297	-104.8285217285156	1410.556640625	16.04212188720693	-365.8150024414062	1073.693603515625	-76.90191650390636	-241.6493072509766	403.2476806640625	-81.6878280639649	7.679614067077617	189.3465881347656	161.0013885498047	277.2564392089844	941.4752197265625	-155.6748809814453	-537.5537109375	1098.927734375	-3.051701307296886	-519.690673828125	1103.4296875	134.9333953857421	-351.4578857421875	1058.190307617188	165.9414825439452	-67.8656539916992	819.8237915039062	-74.73046875000007	-142.0449676513672	646.02880859375	110.4974212646484	-161.8157043457032	687.205322265625	215.7262573242187	-333.9160766601562	580.66943359375	-138.7272644042969	-130.5803527832032	293.5476989746094	120.0519027709961	-399.0328674316406	582.9425048828125	-92.12417602539071	-223.3594360351563	262.2716369628906	153.3597106933593	18.30273628234865	1038.1064453125	-160.2399902343751	63.06474685668948	1067.720581054688	-207.6751861572266	67.03620147705075	1070.873046875	248.2733001708984	274.7797546386719	937.84423828125	200.0436096191406	248.9965209960938	887.5176391601562	-188.8943023681641	156.3334808349609	1348.827758789062	-46.78944015502936	35.48251724243165	1441.60009765625	-64.16998291015634	17.39608764648437	1467.244995117188	68.3747024536132	-22.89025878906252	1330.624633789062	166.6878204345702	-74.90697479248045	1323.6240234375	-141.5882720947266	-73.23380279541016	1265.081298828125	18.82606124877921	325.6825256347656	936.7130737304688	-228.0495758056641	323.6342163085937	927.8173217773438	287.7117004394531	
726	6.041666666666667	143.5497131347656	1350.638427734375	97.5978698730468	-179.2471923828125	276.1427001953125	199.4576110839843	-191.0144653320312	1140.62890625	25.62936210632315	-300.7785949707031	578.3652954101562	-57.32769775390632	-72.07679748535153	856.4307250976562	-181.4828186035157	-331.6093139648438	1347.589721679688	42.57115936279284	27.04973983764646	1037.467041015625	196.4819183349609	242.7012939453125	892.7084350585938	249.8057098388672	-104.9533538818359	1410.721923828125	14.44649600982656	-365.8244018554688	1074.23291015625	-76.34051513671886	-224.9665069580078	417.7347717285156	-81.58140563964849	-5.892926692962666	175.6468200683594	161.2108459472656	276.7610778808594	941.4459838867188	-156.1673126220703	-537.2483520507812	1099.29345703125	-2.694714784622326	-519.2343139648438	1103.395263671875	135.2965545654296	-351.1610717773438	1057.193237304688	165.7853546142577	-63.71086120605468	834.5010375976562	-74.52656555175788	-153.7706909179688	637.0062866210938	109.935447692871	-173.5343322753907	678.2883911132812	215.4613800048828	-324.1666870117188	591.1536254882812	-138.7019195556641	-140.941879272461	284.1825561523438	119.9209518432617	-390.212890625	591.7333984375	-91.07485198974618	-234.5819702148438	254.7041778564453	151.5947875976562	17.51560211181643	1037.739379882812	-160.7691345214844	62.09966278076175	1067.141235351562	-208.4784545898438	66.23822784423825	1070.428344726562	248.1622467041015	274.4129333496094	938.005615234375	200.1723022460937	248.743148803711	887.3713989257812	-189.1843414306641	156.1812438964844	1348.694458007812	-49.01326370239264	35.43448638916016	1441.633178710938	-66.3257598876954	17.72167587280273	1467.641845703125	66.16320800781241	-22.59308242797854	1330.488647460938	165.511016845703	-75.62232971191405	1323.355224609375	-143.3357391357423	-73.20536041259766	1265.331176757812	17.19221878051749	325.3727416992188	936.4730834960938	-228.4774780273438	323.6656188964843	927.5255737304688	287.5968933105469	
